<svg xmlns="http://www.w3.org/2000/svg" width="72" height="72" version="1.0" viewBox="0 0 54 54"><defs><clipPath id="a"><path d="M9 24h36v24.629H9Zm0 0"/></clipPath><clipPath id="b"><path d="M11 4.45h32V14H11Zm0 0"/></clipPath><clipPath id="c"><path d="M4.938 15H49.12v8H4.938Zm0 0"/></clipPath></defs><path fill="#f8fbf8" d="M33.617 34.223h1.102a3.28 3.28 0 0 0 2.34-.97q.467-.464.718-1.07.251-.608.25-1.269 0-.216-.082-.422a1.1 1.1 0 0 0-.597-.594 1.1 1.1 0 0 0-.422-.085H31.41q-.216-.001-.422.085a1 1 0 0 0-.355.239 1 1 0 0 0-.238.355 1.1 1.1 0 0 0-.086.422q.001.66.253 1.27a3.3 3.3 0 0 0 3.055 2.039M19.281 34.223h1.102q.662.001 1.265-.25a3.2 3.2 0 0 0 1.075-.72q.467-.464.718-1.07.251-.608.25-1.269 0-.216-.082-.422a1.1 1.1 0 0 0-.242-.355 1 1 0 0 0-.355-.239 1.1 1.1 0 0 0-.422-.085h-5.516q-.216-.001-.422.085a1 1 0 0 0-.355.239 1.1 1.1 0 0 0-.242.355 1.1 1.1 0 0 0-.082.422 3.28 3.28 0 0 0 .968 2.34q.464.467 1.075.719.61.251 1.265.25m0 0"/><g clip-path="url(#a)"><path fill="#f8fbf8" d="M9.355 30.914c0 9.727 7.922 17.649 17.645 17.649 9.727 0 17.645-7.922 17.645-17.649v-6.613H9.355Zm19.852 11.031h-4.41q-.223.001-.426-.086a1.1 1.1 0 0 1-.594-.597 1 1 0 0 1-.086-.422q0-.217.086-.422c.055-.133.133-.254.239-.355q.153-.158.355-.239.204-.087.426-.086h4.41q.217 0 .422.086.201.081.355.239c.106.101.184.222.243.355a1.13 1.13 0 0 1 0 .844 1.1 1.1 0 0 1-.243.36 1.1 1.1 0 0 1-.777.323M17.074 27.61h5.516q.509-.001 1 .157.486.156.902.453a3.26 3.26 0 0 1 1.203 1.593h2.61q.17-.48.476-.89.311-.41.727-.703a3.3 3.3 0 0 1 1.902-.61h5.516q.656-.001 1.265.25.611.251 1.075.72.464.464.718 1.07.251.61.25 1.265.001.545-.109 1.078-.107.534-.312 1.031-.21.503-.512.954t-.684.836a5.6 5.6 0 0 1-2.82 1.511q-.534.106-1.078.106h-1.102a5.4 5.4 0 0 1-1.851-.32 5.4 5.4 0 0 1-1.637-.922 5.5 5.5 0 0 1-1.23-1.418 5.5 5.5 0 0 1-.684-1.75h-2.426a5.5 5.5 0 0 1-.684 1.75 5.6 5.6 0 0 1-1.234 1.417q-.739.605-1.637.922a5.4 5.4 0 0 1-1.851.32H19.28c-.363 0-.718-.034-1.074-.105q-.532-.111-1.035-.316a5.6 5.6 0 0 1-1.79-1.196 5.6 5.6 0 0 1-1.194-1.789 5.547 5.547 0 0 1-.422-2.11q.001-.654.254-1.265a3.3 3.3 0 0 1 3.054-2.039m0 0"/></g><g clip-path="url(#b)"><path fill="#f8fbf8" d="M40.203 5.281a1.06 1.06 0 0 0-.394-.597 1.07 1.07 0 0 0-.676-.235h-8.824a1.04 1.04 0 0 0-.883.442L27 8.129 24.574 4.89a1.03 1.03 0 0 0-.883-.442h-8.82q-.38 0-.68.235-.3.228-.394.597L11.5 13.27h31.129Zm0 0"/></g><g clip-path="url(#c)"><path fill="#f8fbf8" d="M47.953 19.887h-3.547l-1.105-4.41H10.87l-1.273 4.41H6.047q-.217-.001-.422.086a1.05 1.05 0 0 0-.36.238q-.15.154-.238.36a1.126 1.126 0 0 0 0 .844q.087.2.239.355c.105.105.222.183.359.238q.205.087.422.086h41.906q.224 0 .422-.086a1.094 1.094 0 0 0 .598-1.437 1.07 1.07 0 0 0-.598-.598 1 1 0 0 0-.422-.086m0 0"/></g></svg>